<?xml version="1.0" standalone="no"?><svg xmlns="http://www.w3.org/2000/svg" viewBox="0 0 1440 320"><path fill="#6F42C1" fill-opacity="1" d="M0,32L26.7,69.3C53.3,107,107,181,160,202.7C213.3,224,267,192,320,192C373.3,192,427,224,480,218.7C533.3,213,587,171,640,149.3C693.3,128,747,128,800,138.7C853.3,149,907,171,960,176C1013.3,181,1067,171,1120,138.7C1173.3,107,1227,53,1280,53.3C1333.3,53,1387,107,1413,133.3L1440,160L1440,320L1413.3,320C1386.7,320,1333,320,1280,320C1226.7,320,1173,320,1120,320C1066.7,320,1013,320,960,320C906.7,320,853,320,800,320C746.7,320,693,320,640,320C586.7,320,533,320,480,320C426.7,320,373,320,320,320C266.7,320,213,320,160,320C106.7,320,53,320,27,320L0,320Z"></path></svg>